<?xml version="1.0" encoding="utf-8"?>
<!-- Generator: Adobe Illustrator 22.1.0, SVG Export Plug-In . SVG Version: 6.00 Build 0)  -->
<svg version="1.1" id="Layer_1" xmlns="http://www.w3.org/2000/svg" xmlns:xlink="http://www.w3.org/1999/xlink" x="0px" y="0px"
	 viewBox="0 0 454 90" style="enable-background:new 0 0 454 90;" xml:space="preserve">
<style type="text/css">
	.st0{fill:#FFFFFF;}
	.st1{fill:#FAF001;}
	.st2{fill:url(#SVGID_1_);}
	.st3{fill:url(#SVGID_2_);}
	.st4{fill:url(#SVGID_3_);}
	.st5{fill:url(#SVGID_4_);}
	.st6{fill:url(#SVGID_5_);}
	.st7{fill:url(#SVGID_6_);}
	.st8{fill:url(#SVGID_7_);}
	.st9{fill:url(#SVGID_8_);}
</style>
<path class="st0" d="M80.3,53.3c0,1.3-0.2,2.6-0.7,3.8c-0.4,1.2-1.1,2.4-2,3.4c0.9,1,1.5,2.1,2,3.3c0.5,1.2,0.7,2.5,0.7,3.8
	c0,1.3-0.3,2.5-0.8,3.8c-0.5,1.2-1.2,2.3-2.2,3.3c-0.9,1-2,1.8-3.3,2.4c-1.3,0.6-2.8,0.9-4.4,0.9H48.5c-1,0-1.8-0.3-2.5-1
	c-0.7-0.7-1-1.5-1-2.5V46.3c0-1,0.3-1.8,1-2.5c0.7-0.7,1.5-1,2.5-1h21.2c1.6,0,3.1,0.3,4.4,1c1.3,0.6,2.4,1.4,3.3,2.4
	c0.9,1,1.7,2.1,2.2,3.4C80,50.7,80.3,52,80.3,53.3z M69.7,70.9c0.5,0,1-0.1,1.5-0.3c0.4-0.2,0.8-0.5,1.1-0.8
	c0.3-0.3,0.6-0.7,0.8-1.2c0.2-0.4,0.3-0.9,0.3-1.3c0-0.5-0.1-0.9-0.3-1.3c-0.2-0.4-0.4-0.8-0.7-1.2c-0.2-0.2-0.5-0.4-0.8-0.6
	c-0.3-0.2-0.8-0.3-1.3-0.4c-0.1,0-0.2,0-0.3,0c-0.1,0-0.2,0-0.3,0h-7.1c-1,0-1.8-0.4-2.5-1c-0.7-0.7-1-1.5-1-2.5v-0.1
	c0-1,0.4-1.8,1-2.5c0.7-0.7,1.5-1,2.5-1h7.1c0.3,0,0.5,0,0.6,0c0.5-0.1,0.9-0.2,1.3-0.4s0.6-0.4,0.8-0.6c0.3-0.3,0.5-0.7,0.7-1.1
	c0.2-0.4,0.3-0.9,0.3-1.3c0-0.4-0.1-0.9-0.3-1.3c-0.2-0.4-0.4-0.8-0.8-1.1c-0.3-0.3-0.7-0.6-1.1-0.8c-0.4-0.2-0.9-0.4-1.5-0.4H52
	v21.1H69.7z"/>
<path class="st0" d="M100.8,78c-1,0-1.8-0.3-2.5-1c-0.7-0.7-1-1.5-1-2.5V46.3c0-1,0.3-1.8,1-2.5c0.7-0.7,1.5-1,2.5-1s1.8,0.3,2.5,1
	c0.7,0.7,1,1.5,1,2.5v28.3c0,1-0.3,1.8-1,2.5C102.6,77.7,101.8,78,100.8,78z"/>
<path class="st0" d="M153.2,78c-0.7,0-1.3-0.2-1.9-0.5c-0.5-0.3-1-0.8-1.3-1.4l-11-22l-11.1,22c-0.4,0.9-1.1,1.5-2.1,1.8
	c-0.9,0.3-1.8,0.2-2.7-0.2c-0.9-0.4-1.5-1.1-1.8-2.1c-0.3-0.9-0.2-1.8,0.3-2.7l14.2-28.2c0.3-0.6,0.7-1.1,1.3-1.4
	c0.6-0.4,1.2-0.5,1.9-0.5c0.7,0,1.3,0.2,1.8,0.5c0.6,0.3,1,0.8,1.3,1.4l14.2,28.2c0.2,0.4,0.4,0.9,0.4,1.3c0,0.5,0,0.9-0.2,1.3
	c-0.1,0.4-0.3,0.8-0.6,1.2c-0.3,0.3-0.7,0.6-1.1,0.8C154.4,77.9,153.8,78,153.2,78z"/>
<path class="st0" d="M198.1,42.8c1,0,1.8,0.3,2.5,1c0.7,0.7,1,1.5,1,2.5c0,1-0.3,1.8-1,2.5c-0.7,0.7-1.5,1-2.5,1h-10.6v24.7
	c0,1-0.4,1.8-1.1,2.5c-0.7,0.7-1.5,1-2.4,1c-1,0-1.8-0.3-2.5-1c-0.7-0.7-1.1-1.5-1.1-2.5V49.8h-10.6c-1,0-1.8-0.3-2.5-1
	c-0.7-0.7-1-1.5-1-2.5c0-1,0.3-1.8,1-2.5c0.7-0.7,1.5-1,2.5-1H198.1z"/>
<path class="st0" d="M250.3,42.7c1,0,1.8,0.3,2.5,1c0.7,0.7,1.1,1.5,1.1,2.5v28.3c0,1-0.4,1.8-1.1,2.5c-0.7,0.7-1.5,1-2.5,1
	s-1.8-0.3-2.5-1c-0.7-0.7-1-1.5-1-2.5V63.8h-21.2v10.7c0,1-0.4,1.8-1.1,2.5c-0.7,0.7-1.5,1-2.4,1c-1,0-1.8-0.3-2.5-1
	c-0.7-0.7-1.1-1.5-1.1-2.5V46.3c0-1,0.3-1.8,1.1-2.5c0.7-0.7,1.5-1,2.5-1c1,0,1.8,0.3,2.4,1c0.7,0.7,1.1,1.5,1.1,2.5v10.5h21.2V46.3
	c0-1,0.3-1.8,1-2.5C248.5,43,249.3,42.7,250.3,42.7z"/>
<path class="st0" d="M299,78h-24.7c-1,0-1.8-0.3-2.5-1.1c-0.7-0.7-1-1.5-1-2.5V46.3c0-1,0.3-1.8,1-2.5c0.7-0.7,1.5-1,2.5-1
	c1,0,1.8,0.3,2.5,1c0.7,0.7,1,1.5,1,2.5v24.7H299c1,0,1.8,0.4,2.4,1.1c0.7,0.7,1,1.5,1,2.4c0,1-0.3,1.8-1,2.5
	C300.8,77.7,300,78,299,78z"/>
<path class="st0" d="M355.8,67.5c0,1.4-0.3,2.8-0.8,4.1c-0.5,1.3-1.3,2.4-2.3,3.4c-1,1-2.1,1.7-3.4,2.3c-1.3,0.5-2.6,0.8-4.1,0.8
	h-17.6c-1.5,0-2.9-0.3-4.1-0.8c-1.3-0.5-2.4-1.3-3.4-2.3c-1-1-1.7-2.1-2.3-3.4c-0.5-1.3-0.8-2.7-0.8-4.1V53.3c0-1.3,0.3-2.6,0.8-3.8
	c0.5-1.3,1.2-2.4,2.1-3.4c0.9-1,2-1.8,3.3-2.4c1.3-0.6,2.8-0.9,4.4-0.9h17.8c1.6,0,3.1,0.3,4.4,0.9c1.3,0.6,2.4,1.4,3.3,2.4
	c0.9,1,1.6,2.1,2.1,3.4c0.5,1.2,0.8,2.5,0.8,3.8V67.5z M348.7,53.3c0-0.4-0.1-0.8-0.3-1.1c-0.1-0.4-0.4-0.8-0.6-1.2
	c-0.3-0.4-0.6-0.7-1-0.9c-0.4-0.2-1-0.4-1.6-0.4h-17.8c-0.6,0-1.1,0.1-1.5,0.4c-0.4,0.2-0.8,0.5-1.1,0.9c-0.3,0.3-0.5,0.7-0.6,1.2
	c-0.1,0.4-0.2,0.8-0.2,1.1v14.2c0,1,0.3,1.8,1,2.4c0.7,0.7,1.5,1,2.5,1h17.6c1,0,1.9-0.3,2.5-1c0.3-0.3,0.5-0.7,0.7-1.1
	c0.2-0.4,0.3-0.9,0.3-1.3V53.3z"/>
<path class="st0" d="M404.5,78c-1,0-1.8-0.3-2.5-1.1l-22.2-22.2v19.8c0,1-0.4,1.8-1.1,2.5c-0.7,0.7-1.5,1-2.4,1c-1,0-1.8-0.3-2.5-1
	c-0.7-0.7-1.1-1.5-1.1-2.5V46.3c0-0.7,0.2-1.4,0.6-2c0.4-0.6,0.9-1,1.6-1.3c0.7-0.3,1.3-0.3,2-0.2c0.7,0.1,1.3,0.5,1.9,1l22.1,22.2
	V46.3c0-1,0.4-1.8,1-2.5c0.7-0.7,1.5-1,2.5-1c1,0,1.8,0.3,2.5,1c0.7,0.7,1.1,1.5,1.1,2.5v28.3c0,0.7-0.2,1.3-0.6,1.9
	c-0.4,0.6-0.9,1-1.6,1.3C405.3,77.9,404.9,78,404.5,78z"/>
<path class="st1" d="M46.7,14h1.7v12.4h7.3V28h-9V14z"/>
<path class="st1" d="M85.2,24.5h-6l-1,3.5h-1.8l4.2-14h3.2L88,28h-1.8L85.2,24.5z M82,14.7L79.6,23h5.1l-2.4-8.2H82z"/>
<path class="st1" d="M116.5,18c0-0.5-0.1-0.9-0.3-1.2c-0.2-0.3-0.4-0.6-0.7-0.9c-0.3-0.2-0.7-0.4-1.1-0.5s-0.8-0.2-1.3-0.2
	c-0.4,0-0.8,0.1-1.1,0.2c-0.3,0.1-0.7,0.2-0.9,0.4c-0.3,0.2-0.5,0.4-0.6,0.7c-0.2,0.3-0.2,0.6-0.2,0.9v0.1c0,0.4,0.1,0.7,0.2,1
	c0.2,0.3,0.4,0.5,0.7,0.7c0.3,0.2,0.7,0.3,1.2,0.5c0.5,0.1,1,0.2,1.6,0.3c1.5,0.2,2.5,0.7,3.2,1.3c0.7,0.6,1,1.5,1,2.5v0.2
	c0,0.6-0.1,1.2-0.3,1.7c-0.2,0.5-0.5,0.9-0.9,1.3c-0.4,0.4-0.9,0.6-1.5,0.8c-0.6,0.2-1.3,0.3-2.1,0.3c-0.9,0-1.7-0.1-2.4-0.4
	c-0.7-0.3-1.3-0.6-1.7-1.1c-0.5-0.5-0.8-1-1-1.6c-0.2-0.6-0.4-1.3-0.4-2v-0.6h1.7V23c0,1.2,0.3,2.1,1,2.8c0.7,0.6,1.6,0.9,2.8,0.9
	c1,0,1.8-0.2,2.3-0.7c0.5-0.5,0.8-1.1,0.8-1.8v-0.1c0-0.7-0.3-1.3-0.8-1.7c-0.5-0.4-1.4-0.7-2.6-0.8c-0.7-0.1-1.3-0.2-1.9-0.4
	c-0.6-0.2-1-0.5-1.4-0.8c-0.4-0.3-0.7-0.7-0.9-1.1c-0.2-0.4-0.3-1-0.3-1.6v-0.2c0-0.5,0.1-1,0.3-1.5c0.2-0.5,0.5-0.8,0.9-1.2
	c0.4-0.3,0.9-0.6,1.5-0.8c0.6-0.2,1.2-0.3,1.9-0.3c0.8,0,1.5,0.1,2.1,0.3c0.6,0.2,1.2,0.5,1.6,0.9c0.4,0.4,0.7,0.8,1,1.3
	c0.2,0.5,0.3,1,0.3,1.6v0.8h-1.7V18z"/>
<path class="st1" d="M140,14h8.5v1.6h-6.8v4.6h6.7v1.6h-6.7v4.7h6.9V28H140V14z"/>
<path class="st1" d="M179.7,28H178v-4.7c0-0.3-0.1-0.6-0.2-0.8c-0.2-0.2-0.4-0.3-0.8-0.3h-4.4V28h-1.7V14h5c0.7,0,1.3,0.1,1.9,0.3
	c0.5,0.2,1,0.5,1.3,0.8c0.4,0.3,0.6,0.8,0.8,1.2c0.2,0.5,0.3,0.9,0.3,1.4v0.6c0,0.5-0.1,1-0.4,1.6c-0.3,0.5-0.7,0.9-1.3,1.2v0.2
	c0.4,0.1,0.7,0.2,0.9,0.5c0.2,0.3,0.3,0.6,0.3,1.1V28z M172.6,20.7h3.1c0.9,0,1.6-0.2,2.1-0.6c0.5-0.4,0.7-1,0.7-1.8v-0.4
	c0-0.7-0.2-1.3-0.7-1.7c-0.5-0.4-1.2-0.7-2.1-0.7h-3.1V20.7z"/>
<linearGradient id="SVGID_1_" gradientUnits="userSpaceOnUse" x1="437.3053" y1="86.2996" x2="428.9393" y2="39.1756" gradientTransform="matrix(1 0 0 -1 0 92)">
	<stop  offset="1.000000e-04" style="stop-color:#FAF000"/>
	<stop  offset="1" style="stop-color:#FF0000"/>
</linearGradient>
<path class="st2" d="M432.5,44.4c-0.3,0.3-0.6,0.4-1,0.4s-0.7-0.1-1-0.4c-0.3-0.3-0.4-0.6-0.4-1v-10c0-0.4,0.1-0.7,0.4-1
	c0.3-0.3,0.6-0.4,1-0.4s0.7,0.1,1,0.4c0.3,0.3,0.4,0.6,0.4,1v10C432.9,43.8,432.8,44.1,432.5,44.4z"/>
<linearGradient id="SVGID_2_" gradientUnits="userSpaceOnUse" x1="431.9699" y1="87.2468" x2="423.6039" y2="40.1228" gradientTransform="matrix(1 0 0 -1 0 92)">
	<stop  offset="1.000000e-04" style="stop-color:#FAF000"/>
	<stop  offset="1" style="stop-color:#FF0000"/>
</linearGradient>
<path class="st3" d="M432.5,13.4c-0.3,0.3-0.6,0.4-1,0.4s-0.7-0.1-1-0.4c-0.3-0.3-0.4-0.6-0.4-1v-10c0-0.4,0.1-0.7,0.4-1
	c0.3-0.3,0.6-0.4,1-0.4s0.7,0.1,1,0.4s0.4,0.6,0.4,1v10C432.9,12.8,432.8,13.1,432.5,13.4z"/>
<linearGradient id="SVGID_3_" gradientUnits="userSpaceOnUse" x1="419.6112" y1="89.4408" x2="411.2452" y2="42.3169" gradientTransform="matrix(1 0 0 -1 0 92)">
	<stop  offset="1.000000e-04" style="stop-color:#FAF000"/>
	<stop  offset="1" style="stop-color:#FF0000"/>
</linearGradient>
<path class="st4" d="M421,24.3h-10c-0.4,0-0.7-0.1-1-0.4c-0.3-0.3-0.4-0.6-0.4-1s0.1-0.7,0.4-1c0.3-0.3,0.6-0.4,1-0.4h10
	c0.4,0,0.7,0.1,1,0.4c0.3,0.3,0.4,0.6,0.4,1s-0.1,0.7-0.4,1C421.7,24.2,421.4,24.3,421,24.3z"/>
<linearGradient id="SVGID_4_" gradientUnits="userSpaceOnUse" x1="422.8096" y1="88.873" x2="414.4436" y2="41.7491" gradientTransform="matrix(1 0 0 -1 0 92)">
	<stop  offset="1.000000e-04" style="stop-color:#FAF000"/>
	<stop  offset="1" style="stop-color:#FF0000"/>
</linearGradient>
<path class="st5" d="M419.5,10.9c2-2,4.5-3.5,7.2-4.3v2.9c-2,0.7-3.7,1.8-5.2,3.3c-1.5,1.5-2.6,3.2-3.3,5.2h-2.9
	C416,15.3,417.5,12.9,419.5,10.9z"/>
<linearGradient id="SVGID_5_" gradientUnits="userSpaceOnUse" x1="443.0762" y1="85.2751" x2="434.7102" y2="38.1511" gradientTransform="matrix(1 0 0 -1 0 92)">
	<stop  offset="1.000000e-04" style="stop-color:#FAF000"/>
	<stop  offset="1" style="stop-color:#FF0000"/>
</linearGradient>
<path class="st6" d="M441.6,12.8c-1.5-1.5-3.2-2.6-5.2-3.3V6.6c2.7,0.8,5.2,2.3,7.2,4.3c2,2,3.5,4.5,4.3,7.2h-2.9
	C444.2,16.1,443,14.3,441.6,12.8z"/>
<linearGradient id="SVGID_6_" gradientUnits="userSpaceOnUse" x1="446.4655" y1="84.6733" x2="438.0995" y2="37.5494" gradientTransform="matrix(1 0 0 -1 0 92)">
	<stop  offset="1.000000e-04" style="stop-color:#FAF000"/>
	<stop  offset="1" style="stop-color:#FF0000"/>
</linearGradient>
<path class="st7" d="M441.6,33c1.5-1.5,2.6-3.2,3.3-5.2h2.9c-0.8,2.7-2.3,5.2-4.3,7.2c-2,2-4.5,3.5-7.2,4.3v-2.9
	C438.3,35.6,440.1,34.4,441.6,33z"/>
<linearGradient id="SVGID_7_" gradientUnits="userSpaceOnUse" x1="426.1989" y1="88.2713" x2="417.8329" y2="41.1474" gradientTransform="matrix(1 0 0 -1 0 92)">
	<stop  offset="1.000000e-04" style="stop-color:#FAF000"/>
	<stop  offset="1" style="stop-color:#FF0000"/>
</linearGradient>
<path class="st8" d="M421.4,33c1.5,1.5,3.2,2.6,5.2,3.3v2.9c-2.7-0.8-5.2-2.3-7.2-4.3c-2-2-3.5-4.5-4.3-7.2h2.9
	C418.8,29.7,420,31.5,421.4,33z"/>
<linearGradient id="SVGID_8_" gradientUnits="userSpaceOnUse" x1="449.664" y1="84.1055" x2="441.298" y2="36.9816" gradientTransform="matrix(1 0 0 -1 0 92)">
	<stop  offset="1.000000e-04" style="stop-color:#FAF000"/>
	<stop  offset="1" style="stop-color:#FF0000"/>
</linearGradient>
<path class="st9" d="M442,21.5h10c0.4,0,0.7,0.1,1,0.4c0.3,0.3,0.4,0.6,0.4,1s-0.1,0.7-0.4,1c-0.3,0.3-0.6,0.4-1,0.4h-10
	c-0.4,0-0.7-0.1-1-0.4c-0.3-0.3-0.4-0.6-0.4-1s0.1-0.7,0.4-1C441.3,21.6,441.6,21.5,442,21.5z"/>
</svg>
