<svg width="96" height="41" viewBox="0 0 96 41" fill="none" xmlns="http://www.w3.org/2000/svg">
<path d="M21.4297 27.0662L12.4953 29.7963C12.0891 29.9204 11.7253 30.1828 11.5392 30.5423L9.97369 32.6848C9.7875 33.0443 10.092 33.5564 10.4981 33.4324L25.1181 28.965C25.5243 28.841 25.4905 28.2461 25.1352 28.0521L22.5973 27.012C22.2842 26.9564 21.8358 26.9421 21.4297 27.0662Z" fill="#FF0000"/>
<path d="M11.1841 27.9278L13.0552 19.035C13.0637 18.5785 13.1146 18.2604 12.9877 17.8453L11.6514 14.9252C11.5245 14.5101 10.9408 14.5371 10.7969 15.035L7.27506 30.6352C7.26654 31.0917 7.66411 31.424 7.98567 31.0232L10.448 28.9092C10.8541 28.7851 11.0402 28.4256 11.1841 27.9278Z" fill="#FF0000"/>
<path d="M15.2629 18.5112L21.9202 24.798C22.1824 25.1718 22.6731 25.3245 22.9861 25.3801L26.074 25.7982C26.5224 25.8124 26.6664 25.3146 26.4464 25.0792L14.8067 14.1118C14.5445 13.7381 14.0453 14.0419 14.0368 14.4984L14.5609 17.6667C14.7385 17.7637 14.8654 18.1788 15.2629 18.5112Z" fill="#FF0000"/>
<path d="M12.3382 4.57835L13.0737 8.43848C13.2428 8.99198 13.3696 9.40712 13.7672 9.7395L30.4741 25.6641C30.8715 25.9965 31.4046 26.2875 31.8531 26.3018L35.66 26.6515C36.1085 26.6657 36.3878 26.1265 35.9901 25.7941L13.2012 4.01204C12.8459 3.81803 12.2113 4.16323 12.3382 4.57835Z" fill="#FF0000"/>
<path d="M28.8233 29.9508L8.11161 36.2795C7.57012 36.445 7.20629 36.7075 6.88475 37.1083L4.58304 40.2322C4.26152 40.6332 4.7014 41.1038 5.10749 40.9798L33.8062 32.2105C34.2124 32.0864 34.3139 31.4503 33.8234 31.2975L30.1685 29.9937C29.9486 29.7583 29.3648 29.7854 28.8233 29.9508Z" fill="#FF0000"/>
<path d="M4.34777 33.6493L9.30033 11.1064C9.44424 10.6085 9.41051 10.0137 9.14827 9.63989L7.60056 6.02793C7.47371 5.61281 6.75456 5.68127 6.74604 6.13775L0.0240789 36.9372C-0.119823 37.4351 0.41313 37.7261 0.776955 37.4636L3.73842 35.0458C4.01769 34.5066 4.33925 34.1057 4.34777 33.6493Z" fill="#FF0000"/>
<path d="M36.0269 5.55468C36.0779 5.55468 36.2054 5.66332 36.4094 5.8806H36.7663C36.9193 6.01431 37.0808 6.22324 37.2508 6.50737C37.4717 6.60766 37.5907 6.68287 37.6077 6.73301V6.80823C37.6077 6.87508 37.5482 6.96701 37.4292 7.08401V7.35979C37.4292 7.42664 37.3613 7.51857 37.2253 7.63557V9.7666C37.0553 9.86688 36.8513 10.1844 36.6133 10.7193C36.5284 10.853 36.4434 10.9199 36.3584 10.9199H35.9249C35.8229 11.0369 35.653 11.1204 35.415 11.1706C35.415 11.1873 35.0835 11.5216 34.4206 12.1734H34.0637C33.9107 12.3907 33.8087 12.4993 33.7577 12.4993C33.5367 12.5328 33.4262 12.5913 33.4262 12.6748C33.4262 12.9255 33.3922 13.0509 33.3242 13.0509H33.2987C33.2308 13.0175 33.1628 12.9673 33.0948 12.9005H33.0693C32.9163 12.9005 32.7973 12.984 32.7123 13.1512C32.7123 13.1679 32.7038 13.2013 32.6868 13.2515H32.9418C32.9758 13.2515 33.0183 13.335 33.0693 13.5022L32.5593 13.9785C32.3724 13.9451 32.2789 13.9117 32.2789 13.8782C32.4149 13.7947 32.4828 13.686 32.4828 13.5523V13.452H32.4574C32.4234 13.452 32.2789 13.5607 32.0239 13.7779H31.8199C31.7859 13.7947 31.5225 14.0537 31.0295 14.5551V14.7808C31.0295 14.7975 30.9275 14.8727 30.7236 15.0064C30.7066 15.0064 30.6556 14.9145 30.5706 14.7306C30.5196 14.7474 30.4941 14.8059 30.4941 14.9061V15.1318C30.4941 15.1485 30.2816 15.3574 29.8567 15.7586H29.4742C29.1003 16.5943 28.8368 17.0372 28.6838 17.0873C28.2759 17.4885 28.0719 17.7392 28.0719 17.8394C27.9869 18.1069 27.7829 18.391 27.46 18.6919C27.052 19.0428 26.848 19.2518 26.848 19.3186C26.848 19.4189 26.6781 19.6278 26.3381 19.9454C26.3381 20.1125 26.1171 20.3883 25.6752 20.7727C25.5222 20.8062 25.4287 20.8312 25.3947 20.848C25.3947 21.1321 25.3692 21.2742 25.3182 21.2742L25.0378 21.3995L25.0633 21.6753C25.1822 21.5416 25.3012 21.4747 25.4202 21.4747H25.4712C25.5902 21.4747 25.7177 21.4831 25.8537 21.4998L26.0066 21.4747C26.0236 21.4747 26.0916 21.5332 26.2106 21.6502C26.2106 21.6335 26.2616 21.5834 26.3636 21.4998C26.4996 21.6001 26.5931 21.6502 26.6441 21.6502H27.205C27.256 21.6502 27.358 21.5917 27.511 21.4747C27.6299 21.4747 27.7999 21.5917 28.0209 21.8257C28.2249 21.6084 28.3778 21.4998 28.4798 21.4998C28.6838 21.4998 28.8708 21.4246 29.0408 21.2742H29.0663C29.1343 21.341 29.2192 21.4079 29.3212 21.4747H29.6272L29.8567 21.2992H30.3666C30.3836 21.2992 30.4686 21.3661 30.6216 21.4998C30.8935 21.3661 31.0465 21.2992 31.0805 21.2992H31.9474C31.9644 21.2992 32.0834 21.1822 32.3044 20.9482C32.4913 20.9482 32.6443 21.1154 32.7633 21.4497C32.8483 21.6001 32.9418 21.6753 33.0438 21.6753H33.4772C33.5282 21.6753 33.5707 21.7422 33.6047 21.8759V22.7533C33.6047 22.8202 33.6642 22.9121 33.7832 23.0291C33.6132 23.1294 33.4517 23.3551 33.2987 23.706C33.2478 23.706 33.2138 23.8481 33.1968 24.1323C33.0948 24.266 32.9078 24.3746 32.6358 24.4582C32.5508 24.5752 32.4828 24.7256 32.4319 24.9095H31.6415L31.3355 24.5585H30.3921C30.2221 24.4415 30.1371 24.3662 30.1371 24.3328C30.0691 24.383 29.9672 24.4582 29.8312 24.5585H29.0918C29.0918 24.6253 29.0153 24.6838 28.8623 24.734H28.6838C28.5138 24.734 28.4288 24.642 28.4288 24.4582C28.3948 24.408 28.3609 24.383 28.3269 24.383C28.0209 24.5 27.7744 24.5752 27.5874 24.6086C27.5874 24.642 27.5449 24.6838 27.46 24.734H27.052C27.018 24.734 26.6696 24.9011 26.0066 25.2354H25.9811C25.7772 25.0181 25.6242 24.9095 25.5222 24.9095C25.4372 24.9095 25.3522 25.0599 25.2672 25.3607C25.1992 25.4109 25.1397 25.4359 25.0887 25.4359H24.9103L24.7318 25.11H24.7063C24.6213 25.1936 24.5533 25.2354 24.5023 25.2354H23.8904L23.6609 25.4109H23.5589C23.304 25.4109 23.066 25.4777 22.845 25.6114H22.5646C22.5476 25.6114 22.4201 25.5028 22.1821 25.2855L22.0291 25.4109H21.9781C21.8931 25.3273 21.8421 25.2855 21.8251 25.2855H20.9328L20.7543 25.4109H19.2245C19.2075 25.4109 19.199 25.4025 19.199 25.3858V24.8593L18.995 24.6086V24.2325C18.859 23.9484 18.791 23.7562 18.791 23.6559C18.791 23.472 18.978 23.3133 19.3519 23.1796C19.4709 23.0124 19.5984 22.9288 19.7344 22.9288C19.9894 22.9121 20.1254 22.8536 20.1424 22.7533H20.1678C20.2358 22.8035 20.3038 22.8536 20.3718 22.9038H20.9328C20.9668 22.6698 21.0347 22.5528 21.1367 22.5528H21.3662C21.4852 22.5528 21.6042 22.4441 21.7232 22.2269C21.8251 21.9594 21.9696 21.8257 22.1566 21.8257H22.2586C22.2756 21.6084 22.2841 21.4664 22.2841 21.3995C22.692 21.0151 22.947 20.6557 23.049 20.3215C23.185 19.9538 23.304 19.7699 23.406 19.7699C23.6439 19.7031 23.7629 19.5777 23.7629 19.3938C23.8479 19.2768 23.9329 19.2016 24.0179 19.1682L24.2219 19.3186C24.2559 19.2518 24.2813 19.0846 24.2983 18.8172C24.3493 18.7504 24.4003 18.7169 24.4513 18.7169L24.4258 18.6668V18.6417C24.4258 18.5916 24.5108 18.4746 24.6808 18.2907C24.6468 18.2406 24.6298 18.1988 24.6298 18.1654C26.0916 16.7447 26.8225 16.0176 26.8225 15.9842C26.8225 15.8338 26.8905 15.7251 27.0265 15.6583C27.5365 15.09 27.8764 14.8059 28.0464 14.8059C28.1314 14.8059 28.2419 14.6387 28.3778 14.3044C28.5988 14.0537 28.8113 13.9284 29.0153 13.9284V13.6275C29.2702 13.4604 29.3977 13.3183 29.3977 13.2013C29.3977 13.1177 29.5422 12.9506 29.8312 12.6999C30.0521 12.4325 30.2561 12.2988 30.4431 12.2988C30.4431 12.0982 30.5451 11.9311 30.7491 11.7973C31.31 11.2124 31.616 10.9199 31.6669 10.9199C31.8879 10.9199 32.0664 10.736 32.2024 10.3683C32.5083 10.2179 32.8398 9.95045 33.1968 9.56603V9.51589C33.1798 9.36546 33.1203 9.29025 33.0183 9.29025C32.8313 9.42396 32.7123 9.49082 32.6613 9.49082H32.5848C32.4659 9.37382 32.3724 9.31532 32.3044 9.31532H31.9474C31.8964 9.31532 31.7774 9.38218 31.5905 9.51589L31.2845 9.34039C31.2845 9.37382 31.2335 9.42396 31.1315 9.49082H30.3156C30.2476 9.49082 30.1541 9.54932 30.0351 9.66631H29.3212C29.2022 9.78331 29.1173 9.84181 29.0663 9.84181C29.0663 9.8251 29.0068 9.75824 28.8878 9.64124L28.5053 9.84181C27.6214 9.85852 27.1115 9.86688 26.9755 9.86688C26.8395 9.86688 26.3891 9.85852 25.6242 9.84181C25.0293 10.0257 24.7063 10.1176 24.6553 10.1176C24.6213 10.1844 24.5618 10.2179 24.4768 10.2179H23.406C23.321 10.2179 23.2105 10.2262 23.0745 10.2429C23.0745 10.4769 22.964 10.5939 22.743 10.5939C22.658 10.5438 22.6156 10.4184 22.6156 10.2179C22.6156 10.1844 22.5561 10.0758 22.4371 9.89195C22.4371 9.77495 22.3266 9.63289 22.1056 9.46575C22.1056 9.33203 22.0376 9.17325 21.9016 8.9894C21.9016 8.90583 21.8421 8.79719 21.7232 8.66348V8.11192C21.8931 7.92806 22.1226 7.83613 22.4116 7.83613C22.4116 7.81942 22.4626 7.76928 22.5646 7.68571H23.8139L23.9924 7.53528H26.1341L26.3636 7.33472H26.746C26.831 7.41829 26.9075 7.46007 26.9755 7.46007C26.9755 7.44336 27.0265 7.39321 27.1285 7.30964H27.8169C27.9529 7.44336 28.0464 7.51021 28.0974 7.51021C28.3354 7.39321 28.4713 7.33472 28.5053 7.33472H29.4487L29.6527 7.15922H30.9785C31.0125 7.15922 31.1485 7.08401 31.3865 6.93358H31.412L31.6669 7.10908C31.6669 7.09236 31.7264 7.04222 31.8454 6.95865H32.3554L32.6103 6.78315H33.6557C33.7747 6.64944 33.9532 6.58259 34.1911 6.58259C34.2931 6.49902 34.3781 6.45723 34.4461 6.45723C34.4461 6.49066 34.4886 6.5408 34.5736 6.60766H35.2365C35.4575 6.60766 35.7125 6.25666 36.0014 5.55468H36.0269ZM33.0948 12.6247V12.6498C33.0948 12.6665 33.1033 12.6748 33.1203 12.6748L33.1458 12.5745H33.1203C33.1033 12.5745 33.0948 12.5913 33.0948 12.6247ZM32.4828 13.427C32.5678 13.427 32.6188 13.3935 32.6358 13.3267V13.2765H32.5848C32.5168 13.2932 32.4828 13.3434 32.4828 13.427Z" fill="#52C41A"/>
<path d="M38.6021 9.79167C38.7381 9.79167 38.8656 9.90031 38.9846 10.1176C38.9846 10.2012 39.095 10.3349 39.316 10.5187C39.333 10.5522 39.52 10.736 39.8769 11.0703H40.3614C40.5824 11.2374 40.6929 11.4129 40.6929 11.5968C40.7098 11.5633 40.7778 11.5049 40.8968 11.4213H41.4068C42.3416 12.3071 42.8091 12.7668 42.8091 12.8002C42.8091 12.9005 42.9281 13.0676 43.166 13.3016V13.8532C43.166 13.8699 43.0556 13.9284 42.8346 14.0287L42.8091 14.0537V15.0816C42.9281 15.1819 42.9876 15.2906 42.9876 15.4076V17.0873L42.8346 17.2628V17.9648C43.0726 18.2155 43.1915 18.3492 43.1915 18.3659C43.1915 18.4829 43.0641 18.6584 42.8091 18.8924V19.5944L42.6306 19.82V20.873L42.4776 21.0485V21.4497C42.4776 21.4664 42.3586 21.692 42.1207 22.1266L42.0952 22.3271V22.4274L42.2737 22.628L41.9167 23.0041V23.1545C41.9167 23.2715 41.8572 23.4386 41.7382 23.6559C41.6192 23.8063 41.5427 24.0153 41.5087 24.2827C41.4068 24.4164 41.3558 24.5083 41.3558 24.5585V24.8844C41.3558 24.9178 41.2623 25.1017 41.0753 25.4359C40.6504 26.2716 40.4379 26.7062 40.4379 26.7396V26.8148C40.4379 26.8817 40.4974 26.9736 40.6164 27.0906V27.4918C40.4804 27.6422 40.3869 27.7174 40.3359 27.7174C40.3189 27.7174 40.2679 27.6756 40.1829 27.592C40.0299 27.709 39.9279 27.7675 39.8769 27.7675H39.8515L39.8005 27.7425C39.6985 27.9932 39.6305 28.1185 39.5965 28.1185C39.5965 28.1018 39.4775 27.9848 39.2395 27.7675H39.0865C39.0525 27.7675 39.0186 27.801 38.9846 27.8678V28.7202C38.9846 28.7704 38.8656 28.8205 38.6276 28.8707V28.996C38.6276 29.23 38.5936 29.347 38.5256 29.347L38.3981 29.3721C38.2961 29.3554 38.2366 29.347 38.2197 29.347C38.1857 29.3637 38.1602 29.3721 38.1432 29.3721C37.9902 29.2217 37.9137 29.113 37.9137 29.0462C37.9137 28.9124 37.8117 28.6617 37.6077 28.294H37.2763C37.2253 28.294 37.1828 28.3609 37.1488 28.4946C37.2848 28.645 37.3528 28.762 37.3528 28.8456V28.8957C37.3528 28.9292 37.2508 28.9793 37.0468 29.0462C36.7748 28.7286 36.6218 28.528 36.5878 28.4445H36.5624L36.3584 28.62C36.2904 28.62 36.1034 28.4612 35.7974 28.1436C35.7125 28.2272 35.636 28.269 35.568 28.269C35.347 28.035 35.024 27.8428 34.5991 27.6923L33.6812 26.7647V26.4137L33.5027 26.2131V25.6867C33.3837 25.5864 33.3242 25.4861 33.3242 25.3858V23.8815L33.5027 23.681V23.2046C33.6217 23.0709 33.6812 22.979 33.6812 22.9288V22.5277C33.6812 22.4776 33.7407 22.3856 33.8597 22.2519V21.575C33.9957 21.4747 34.0637 21.3494 34.0637 21.1989C34.0637 21.0485 34.1571 20.8312 34.3441 20.5471C34.3951 20.4301 34.4206 20.3465 34.4206 20.2964C34.4036 19.9621 34.3951 19.7866 34.3951 19.7699C34.3951 19.5861 34.4716 19.4523 34.6246 19.3688L34.7521 19.2183V18.6417C34.7521 18.6083 34.9475 18.2406 35.3385 17.5386V17.0873C35.4745 17.0037 35.5425 16.7948 35.5425 16.4605C35.6105 16.4104 35.7804 16.0845 36.0524 15.4828C36.1714 15.3491 36.2309 15.2488 36.2309 15.1819V14.9312C36.2309 14.9145 36.2989 14.8476 36.4349 14.7306L36.4094 14.505V14.4799C36.4094 14.4465 36.4774 14.3212 36.6133 14.1039C36.6643 13.8532 36.7833 13.7278 36.9703 13.7278V13.3016C37.2083 13.1345 37.3273 13.0425 37.3273 13.0258V10.7945C37.3273 10.7778 37.4802 10.6274 37.7862 10.3432H38.1432C38.2961 9.97552 38.4491 9.79167 38.6021 9.79167ZM40.5144 14.1289C39.8515 14.8309 39.4775 15.1819 39.3925 15.1819C39.2225 15.2655 39.0016 15.4493 38.7296 15.7335C38.4406 15.7335 38.2281 16.0093 38.0922 16.5608V16.7113C38.0242 16.7614 37.9307 16.9202 37.8117 17.1876C37.7437 17.1876 37.7012 17.3547 37.6842 17.689C37.6162 17.689 37.5312 17.8394 37.4292 18.1403C37.3953 18.1403 37.3613 18.1737 37.3273 18.2406C37.3273 18.4244 37.3953 18.5749 37.5312 18.6919C37.5312 18.8924 37.5737 18.9927 37.6587 18.9927C37.6927 19.2936 37.7777 19.5192 37.9137 19.6696C37.9307 19.6696 37.9392 19.678 37.9392 19.6947C37.7522 19.9454 37.6502 20.0708 37.6332 20.0708H37.6077C37.5907 20.0708 37.5567 20.029 37.5057 19.9454V18.9676C37.2848 19.0679 37.1743 19.1933 37.1743 19.3437C37.1573 19.3938 37.1488 19.4858 37.1488 19.6195C37.1318 19.6195 37.0723 19.678 36.9703 19.795V20.2212C36.9703 20.2713 37.0298 20.3549 37.1488 20.4719V20.497L36.9703 20.6975V21.0235C36.9703 21.0402 36.8088 21.1321 36.4859 21.2992C36.4519 21.3828 36.4349 21.458 36.4349 21.5249C36.4349 21.7087 36.4944 21.8341 36.6133 21.9009V22.628L36.2564 23.0041V23.681L36.4604 23.9066V24.5083C36.7323 25.2103 36.9533 25.5613 37.1233 25.5613C37.1913 25.5613 37.3613 25.6867 37.6332 25.9374H37.6587C38.0327 25.8371 38.3556 25.6114 38.6276 25.2604C38.6616 25.2604 38.8146 25.1184 39.0865 24.8342C39.2055 24.7674 39.3245 24.5835 39.4435 24.2827C39.6135 24.1657 39.6985 24.0236 39.6985 23.8565C39.6985 23.7729 39.775 23.4721 39.9279 22.9539C39.9279 22.9205 39.9704 22.8703 40.0554 22.8035V22.3271C40.0554 22.277 40.1149 22.1934 40.2339 22.0764V21.7756C40.4889 21.3744 40.6164 21.1405 40.6164 21.0736V20.2964L40.7693 20.1209C40.7523 20.1209 40.7098 20.0708 40.6419 19.9705V19.1933L40.7948 19.0178V18.3409C40.7948 18.1737 40.8543 18.0484 40.9733 17.9648V16.5859L41.1773 16.2098C41.1603 16.2098 41.0923 16.1346 40.9733 15.9842V14.4047C40.8373 14.2209 40.6844 14.1289 40.5144 14.1289ZM41.6107 15.7335C41.5597 15.8839 41.5342 16.0009 41.5342 16.0845V16.1095C41.5342 16.1764 41.5597 16.285 41.6107 16.4355C41.6447 16.4355 41.6787 16.3185 41.7127 16.0845C41.6787 15.8505 41.6447 15.7335 41.6107 15.7335ZM38.5511 17.5386L38.5766 17.5887V17.6639C38.5766 17.6974 38.5256 17.7141 38.4236 17.7141V17.9899C38.2876 18.1737 38.1687 18.2656 38.0667 18.2656C37.9477 18.2656 37.8797 18.1904 37.8627 18.04C37.8797 17.806 37.9137 17.689 37.9647 17.689C38.0327 17.7559 38.1007 17.8144 38.1687 17.8645C38.3386 17.7141 38.4661 17.6054 38.5511 17.5386ZM36.8428 18.8172L36.8173 18.8674L36.9193 18.9175L36.9448 18.8674V18.8423L36.8428 18.8172Z" fill="#52C41A"/>
<path d="M46.5316 13.0258H46.5826C47.0416 13.2431 47.271 13.3935 47.271 13.4771C47.271 13.6275 47.373 13.7696 47.577 13.9033C47.798 14.1874 48.036 14.6136 48.2909 15.1819L48.3929 15.207C48.8179 14.8393 49.0388 14.6554 49.0558 14.6554H49.1578C49.2258 14.6554 49.3533 14.7557 49.5403 14.9563C49.7103 14.9897 49.8632 15.0733 49.9992 15.207C50.0332 15.2739 50.2032 15.3741 50.5092 15.5078C50.5601 15.5747 50.5941 15.6833 50.6111 15.8338C50.6281 15.8505 50.8576 16.0845 51.2996 16.5358V16.8867L51.478 17.0873V17.4132C51.478 17.43 51.58 17.5219 51.784 17.689H51.8095C52.0645 17.689 52.192 17.7141 52.192 17.7642V18.4161L51.631 18.9927L51.7075 19.0679C51.5545 19.3521 51.478 19.5025 51.478 19.5192C51.478 19.5693 51.563 19.6696 51.733 19.82H52.1155C52.8804 19.1181 53.2628 18.6584 53.2628 18.4411C53.2628 18.3409 53.5093 18.0651 54.0022 17.6138C54.0022 17.5971 54.2742 17.3297 54.8181 16.8115H55.4046C55.4556 16.8115 55.532 16.9536 55.634 17.2377H55.685C55.804 17.2377 55.9485 17.1542 56.1185 16.987H56.144C56.246 17.0706 56.3904 17.2712 56.5774 17.5887C56.8324 17.806 56.9599 17.923 56.9599 17.9397V18.3158L57.3168 18.7169V19.1933L57.4953 19.3938V21.9009C57.2573 22.2686 57.1383 22.4776 57.1383 22.5277V23.1796L56.9854 23.33V24.057L56.8069 24.2576V24.734C56.8069 24.7674 56.8494 24.851 56.9344 24.9847V25.0097C56.9174 25.0097 56.8749 25.0515 56.8069 25.1351V26.9402L56.9599 27.1157V28.1937L56.7814 28.3943V28.9709C57.1383 29.3052 57.3168 29.4807 57.3168 29.4974C57.3168 29.6311 57.2063 29.7899 56.9854 29.9738L56.9599 30.0239V30.3498L56.8069 30.5003C56.8409 30.5671 56.8919 30.634 56.9599 30.7008V31.0268L57.1383 31.2775V32.1048L57.3168 32.3054V33.0324C57.5378 33.2497 57.6483 33.3667 57.6483 33.3834C57.6483 33.4002 57.5888 33.5171 57.4698 33.7344C57.7248 33.8013 57.8523 33.8765 57.8523 33.9601C57.8693 34.0771 57.8778 34.1941 57.8778 34.3111C57.8948 34.3111 57.9458 34.3612 58.0307 34.4615V35.1133C57.8778 35.4643 57.7843 35.6398 57.7503 35.6398H57.4953C57.4613 35.6398 57.2063 35.5145 56.7304 35.2638C56.6454 35.2638 56.5094 35.1635 56.3224 34.9629C56.1525 34.896 55.9145 34.779 55.6085 34.6119C55.5065 34.5618 55.4046 34.5367 55.3026 34.5367L55.2006 34.5618C55.0136 34.3779 54.8181 34.0603 54.6142 33.6091C54.5972 33.6091 54.5207 33.5339 54.3847 33.3834V32.7316C54.2147 32.531 54.0362 32.155 53.8492 31.6034V30.8763C53.9682 30.7426 54.0277 30.6674 54.0277 30.6507V30.0239C53.8917 29.9069 53.8238 29.7649 53.8238 29.5977C53.8238 29.2634 53.8832 29.0963 54.0022 29.0963V28.62C54.0022 28.5698 53.9427 28.4695 53.8238 28.3191V28.269L54.0022 27.9681V26.6143L54.2062 26.3636V25.6867L54.3847 25.4861V23.1796C54.5037 23.0793 54.5632 22.9706 54.5632 22.8536C54.5632 22.4692 54.5207 22.2185 54.4357 22.1015C54.4187 22.1015 54.3762 22.0179 54.3082 21.8508H54.1297C54.0787 21.9009 54.0022 22.043 53.9002 22.277C53.6113 22.4776 53.4668 22.6698 53.4668 22.8536C53.2628 23.0542 53.1013 23.2715 52.9824 23.5055C52.9144 23.5389 52.8124 23.6977 52.6764 23.9818C52.4724 24.0988 52.3704 24.2576 52.3704 24.4582C52.2684 24.525 52.158 24.7172 52.039 25.0348C51.886 25.3691 51.767 25.5864 51.682 25.6867V26.2884C51.682 26.3552 51.614 26.4639 51.478 26.6143V26.6644L51.5035 26.7647C51.4865 26.7647 51.2231 27.0071 50.7131 27.4918C50.3732 27.6756 50.1862 27.7675 50.1522 27.7675L49.8462 27.567C49.7442 27.567 49.5998 27.684 49.4128 27.918L49.3618 27.943H49.0303C48.8264 27.7425 48.6819 27.6171 48.5969 27.567H48.2909C48.1719 27.45 48.053 27.3915 47.934 27.3915H47.7555C47.5005 27.1241 47.288 26.9903 47.1181 26.9903C47.1011 26.9402 47.0926 26.8901 47.0926 26.8399V26.7898C47.0926 26.6561 47.1521 26.4889 47.271 26.2884V26.1129L47.4495 25.7869C47.4495 25.5362 47.509 25.3691 47.628 25.2855V25.11C47.628 25.0766 47.6875 24.9345 47.8065 24.6838V24.4331L48.1889 24.032V23.5306L48.3419 23.3551V21.7004C48.3419 21.6669 48.4694 21.4079 48.7244 20.9232V19.9203C48.7074 19.9203 48.6904 19.912 48.6734 19.8953C48.5714 19.8953 48.4524 20.0373 48.3164 20.3215C48.2314 20.405 48.07 20.6474 47.832 21.0485C47.764 21.0485 47.679 21.1906 47.577 21.4747C47.543 21.4914 47.492 21.5917 47.424 21.7756C47.373 21.7923 47.3135 21.9344 47.2456 22.2018C47.0926 22.2686 46.9396 22.4692 46.7866 22.8035C46.5996 23.0041 46.3447 23.3634 46.0217 23.8815C46.0217 23.8983 45.8432 24.1406 45.4863 24.6086C45.4863 24.7089 45.3758 24.8677 45.1548 25.0849C45.0868 25.3189 45.0018 25.461 44.8998 25.5112C44.8318 25.5446 44.7554 25.6783 44.6704 25.9123C44.3304 26.2466 44.0924 26.6059 43.9565 26.9903C43.9055 27.0071 43.846 27.1909 43.778 27.5419C43.336 28.0099 43.0301 28.2439 42.8601 28.2439C42.6051 28.2773 42.4011 28.3442 42.2482 28.4445C42.2312 28.4612 42.2057 28.4695 42.1717 28.4695C41.7127 28.2355 41.4663 28.1185 41.4323 28.1185H40.7948C40.7778 28.1185 40.6929 28.0266 40.5399 27.8428V27.1408C40.6759 26.9736 40.8968 26.6561 41.2028 26.1881C41.2368 26.1881 41.2708 26.1129 41.3048 25.9624C41.6277 25.7117 41.8742 25.3691 42.0442 24.9345C42.1292 24.7841 42.1717 24.6922 42.1717 24.6587V24.3328L42.7071 23.2548V22.9539C43.1151 22.0681 43.336 21.6252 43.37 21.6252H43.7015C43.8375 21.5249 43.931 21.4329 43.9819 21.3494V20.7727C43.9819 20.7059 44.0499 20.6056 44.1859 20.4719V20.4218L44.1604 20.2964C44.3304 20.1627 44.4579 20.029 44.5429 19.8953V19.3938C44.6619 19.3103 44.7214 19.1682 44.7214 18.9676C44.8233 18.8005 44.9168 18.5414 45.0018 18.1904C45.0528 18.1904 45.1038 18.0317 45.1548 17.7141C45.1718 17.7141 45.2058 17.6723 45.2568 17.5887V16.9369C45.3418 16.8533 45.4268 16.6862 45.5118 16.4355C45.5968 16.402 45.6392 16.3686 45.6392 16.3352V15.4577C45.5033 15.4577 45.4353 15.2739 45.4353 14.9061C45.4183 14.9061 45.3758 14.856 45.3078 14.7557C45.4438 14.3379 45.6053 14.1289 45.7922 14.1289C45.9112 14.0788 46.1067 13.9033 46.3787 13.6025V13.1261C46.3957 13.0592 46.4466 13.0258 46.5316 13.0258ZM58.1837 20.3465L58.2092 20.3967V20.6975C58.2092 20.731 58.1157 20.756 57.9288 20.7727C57.8948 20.7393 57.8608 20.6307 57.8268 20.4468C57.9118 20.4134 58.0307 20.38 58.1837 20.3465ZM57.5718 30.8011H57.5973C57.6653 30.8346 57.6993 30.8931 57.6993 30.9766C57.6823 31.0602 57.6483 31.1187 57.5973 31.1521C57.5123 31.1187 57.4698 31.0602 57.4698 30.9766V30.9516C57.4698 30.868 57.5038 30.8178 57.5718 30.8011Z" fill="#52C41A"/>
<path d="M71.4676 0.841339H71.5186C71.6206 0.941623 71.7566 1.00848 71.9265 1.04191C71.9265 1.59347 72.139 2.03639 72.564 2.37067C72.9039 2.93894 73.0739 3.31501 73.0739 3.49886V3.59914C73.0739 3.61586 73.1759 3.65764 73.3799 3.7245C73.5329 3.82478 73.6093 3.91671 73.6093 4.00028V4.47663L73.4054 4.70227V5.02819C73.2864 5.11176 73.2269 5.26218 73.2269 5.47947C73.2269 5.56304 73.1419 5.68003 72.9719 5.83046H72.9464L72.7424 5.65496H72.462C72.292 5.65496 71.8756 6.26502 71.2126 7.48514C71.0767 7.83613 70.9577 8.01163 70.8557 8.01163C70.7537 8.01163 70.6687 8.12863 70.6007 8.36262C70.3117 8.8139 70.1418 9.21504 70.0908 9.56603C69.9038 9.71646 69.7933 9.79167 69.7593 9.79167V10.1176C69.9123 10.0173 70.0143 9.96717 70.0653 9.96717L70.2947 10.1176C70.2947 10.0006 70.3542 9.94209 70.4732 9.94209V9.69139C70.4732 9.67467 70.4987 9.6496 70.5497 9.61617H70.5752C70.6262 9.61617 70.6517 9.67467 70.6517 9.79167V9.84181C70.5497 9.92538 70.4987 9.98388 70.4987 10.0173C70.4987 10.0842 70.4307 10.1343 70.2947 10.1677C70.1928 10.4519 70.0313 10.7026 69.8103 10.9199C69.6403 11.321 69.5298 11.5299 69.4788 11.5466H69.4534C69.2494 11.4129 69.1474 11.2374 69.1474 11.0201C68.8584 11.3377 68.7139 11.555 68.7139 11.672C68.561 11.9728 68.4845 12.14 68.4845 12.1734C68.7394 12.4241 68.8669 12.5745 68.8669 12.6247C68.8669 12.725 68.7819 12.842 68.612 12.9757H68.5865C68.5695 12.9757 68.527 12.9423 68.459 12.8754V12.6498C68.459 12.5662 68.4335 12.516 68.3825 12.4993C68.2805 12.5829 68.051 12.9924 67.6941 13.7278C67.6431 13.7947 67.5496 13.8782 67.4136 13.9785V14.4298L66.8272 15.6332C66.7422 15.7669 66.6317 15.8839 66.4957 15.9842C66.4957 16.2516 66.3852 16.5274 66.1643 16.8115C66.2662 16.9787 66.3257 17.1207 66.3427 17.2377C66.4107 17.2377 66.6487 17.3798 67.0566 17.6639C67.1756 17.6639 67.2351 17.7559 67.2351 17.9397C67.5751 18.2406 67.7451 18.4244 67.7451 18.4913C67.7451 18.5581 67.8045 18.6668 67.9235 18.8172C67.9405 18.9509 68.0085 19.0846 68.1275 19.2183V19.6947C68.2295 19.7448 68.306 19.937 68.357 20.2713C68.357 20.3215 68.3995 20.3883 68.4845 20.4719V21.7004L68.3315 21.8759L68.51 22.0764C68.357 22.4943 68.2295 22.7032 68.1275 22.7032C68.0085 22.7032 67.9405 22.8035 67.9235 23.0041C67.5326 23.3383 67.3371 23.589 67.3371 23.7562C67.0481 24.0403 66.8272 24.1908 66.6742 24.2075V24.2576C66.6742 24.3746 66.5807 24.5083 66.3937 24.6587C66.3087 24.9095 66.1982 25.0599 66.0623 25.11C65.9263 25.11 65.7138 25.2772 65.4248 25.6114C65.1019 25.929 64.9234 26.0878 64.8894 26.0878C64.8384 26.0878 64.6939 26.163 64.456 26.3134C64.371 26.3134 64.2605 26.3803 64.1245 26.514L63.4361 26.6895C63.3341 26.7731 63.1131 26.8399 62.7732 26.8901C62.5352 27.0572 62.3907 27.1408 62.3397 27.1408C62.2207 27.0405 62.1527 26.9903 62.1357 26.9903C61.6428 27.2411 61.3708 27.3664 61.3198 27.3664C61.1669 27.2327 61.0819 27.1658 61.0649 27.1658H60.5804C60.4614 27.2828 60.3765 27.3413 60.3255 27.3413H59.9175C59.5436 27.2411 59.2546 27.0572 59.0506 26.7898L58.7447 26.9653C58.4557 26.865 58.1922 26.6811 57.9543 26.4137C57.8013 26.2633 57.7248 26.1546 57.7248 26.0878C57.7248 26.0042 57.6143 25.8789 57.3933 25.7117C57.3933 25.3942 57.3253 25.1852 57.1893 25.0849C57.1893 25.0515 57.2148 25.0265 57.2658 25.0097H57.6483C57.8693 25.227 58.0052 25.3357 58.0562 25.3357C58.3112 25.3357 58.4812 25.4109 58.5662 25.5613L58.7192 25.7117C58.7192 25.6783 58.7787 25.6282 58.8976 25.5613L59.1271 25.7368H59.4586C59.5946 25.8371 59.671 25.8872 59.688 25.8872C59.824 25.8872 59.892 25.8204 59.892 25.6867V25.3607C59.892 25.2772 59.8835 25.1685 59.8665 25.0348L59.688 25.1602C59.603 25.1602 59.4331 25.0766 59.1781 24.9095C59.1781 24.8092 59.3481 24.4498 59.688 23.8314C59.858 23.6643 59.977 23.5807 60.045 23.5807C60.317 23.5807 60.4529 23.5222 60.4529 23.4052V23.33C60.334 23.213 60.2745 23.1211 60.2745 23.0542V22.8536L60.249 22.7283C60.4699 22.5946 60.5974 22.5277 60.6314 22.5277V22.1767C60.6314 22.0931 60.6994 21.9594 60.8354 21.7756C60.8354 21.6753 60.8864 21.575 60.9884 21.4747C60.9884 21.341 61.0479 21.2491 61.1669 21.1989C61.1669 21.1154 61.2348 20.9482 61.3708 20.6975C61.3708 20.6307 61.4388 20.5137 61.5748 20.3465C61.5748 20.2295 61.6853 20.0791 61.9063 19.8953V19.5443L62.1102 19.3437V19.0679C62.2462 18.7169 62.3652 18.5414 62.4672 18.5414C62.5692 18.5414 62.6202 18.4829 62.6202 18.3659C62.6542 18.1152 62.6967 17.9899 62.7477 17.9899C62.7477 18.0066 62.8072 18.0651 62.9261 18.1654L63.2576 17.8394L63.4616 17.9899C63.5296 17.9397 63.5636 17.8979 63.5636 17.8645C63.5636 17.6639 63.5466 17.5637 63.5126 17.5637C63.1726 17.43 63.0026 17.2879 63.0026 17.1375V17.0622L63.1811 16.8115V16.5107C63.3511 16.4104 63.5976 16.0176 63.9205 15.3323C64.0395 15.1485 64.184 14.8476 64.354 14.4298C64.49 14.2794 64.6514 14.1958 64.8384 14.1791C64.8894 14.1122 64.9404 14.0454 64.9914 13.9785C64.8894 13.8782 64.8384 13.803 64.8384 13.7529V13.6777C64.8384 13.5607 64.9319 13.5022 65.1189 13.5022C65.2889 13.2013 65.3738 13.0258 65.3738 12.9757V12.3489C65.5778 11.8475 65.7393 11.5299 65.8583 11.3962H66.0113C66.0963 11.4296 66.1388 11.4798 66.1388 11.5466V11.8224C66.1727 11.8558 66.1897 11.8809 66.1897 11.8976H66.2152C66.2662 11.7973 66.2917 11.6971 66.2917 11.5968V11.1956C66.2917 11.1288 66.3512 11.0369 66.4702 10.9199V10.4686C66.4702 10.4184 66.5297 10.3349 66.6487 10.2179V9.69139L66.8272 9.49082V9.18997C66.8272 9.13982 66.8867 9.05625 67.0056 8.93926V8.58826C67.0056 8.55484 67.1841 8.52141 67.5411 8.48798V7.56035L67.4136 7.40993V7.30964C67.4136 7.27622 67.4986 7.25115 67.6686 7.23443C67.8385 6.91687 67.9235 6.74137 67.9235 6.70794C67.9235 6.47395 67.9745 6.34023 68.0765 6.30681C68.1105 6.13967 68.17 6.02267 68.255 5.95581C68.272 5.88896 68.2805 5.80539 68.2805 5.7051V5.55468C68.2805 5.52125 68.391 5.47947 68.612 5.42932C68.629 5.21204 68.7649 4.86105 69.0199 4.37634V3.97521C69.2749 3.57407 69.4024 3.34008 69.4024 3.27322V2.59631C69.5213 2.24531 69.6318 2.06982 69.7338 2.06982C69.8868 2.06982 70.0058 1.97789 70.0908 1.79404L70.3457 1.51825H70.6517C70.7197 1.51825 70.8812 1.40961 71.1361 1.19233C71.1871 1.1589 71.2296 1.14219 71.2636 1.14219H71.3656C71.3826 0.941623 71.4166 0.841339 71.4676 0.841339ZM72.7934 6.00595C72.8274 6.00595 72.8444 6.04774 72.8444 6.13131C72.7594 6.13131 72.7 6.32352 72.666 6.70794C72.598 6.70794 72.5215 6.84165 72.4365 7.10908C72.1305 7.34307 71.9775 7.51857 71.9775 7.63557C71.9435 7.80271 71.8756 7.88628 71.7736 7.88628V8.26234L71.5186 8.51305H71.4931C71.4591 8.51305 71.4251 8.47962 71.3911 8.41277V8.16206C71.3911 8.0952 71.4931 7.89463 71.6971 7.56035C71.6971 7.47678 71.8331 7.26786 72.105 6.93358C72.241 6.7163 72.309 6.56587 72.309 6.4823C72.428 6.34859 72.496 6.18981 72.513 6.00595H72.7934ZM69.6318 7.66064V7.73585C69.6318 7.75256 69.6488 7.76092 69.6828 7.76092H69.7083L69.6828 7.66064H69.6318ZM68.6884 9.44067C68.7054 9.50753 68.7309 9.54096 68.7649 9.54096C68.9349 9.44068 69.0199 9.32368 69.0199 9.18997C69.0199 9.12311 69.1474 9.0479 69.4024 8.96433C69.3684 8.8139 69.3344 8.73869 69.3004 8.73869C69.0114 8.85569 68.8329 9.02283 68.7649 9.24011C68.7139 9.34039 68.6884 9.40725 68.6884 9.44067ZM68.306 10.0674C68.408 10.1009 68.476 10.1176 68.51 10.1176C68.595 10.0842 68.6374 10.0591 68.6374 10.0424V9.86688C68.6374 9.83345 68.629 9.81674 68.612 9.81674H68.561C68.544 9.81674 68.459 9.90031 68.306 10.0674ZM69.6063 10.2931L69.6573 10.4435H69.6828C69.6998 10.4435 69.7168 10.4268 69.7338 10.3934V10.1677C69.6488 10.2012 69.6063 10.2429 69.6063 10.2931ZM65.6543 16.26C65.5863 16.3435 65.5523 16.3937 65.5523 16.4104C65.5863 16.494 65.6288 16.5441 65.6798 16.5608C65.7138 16.5107 65.7308 16.4605 65.7308 16.4104C65.7308 16.3268 65.7053 16.2767 65.6543 16.26ZM64.303 18.6668C64.32 18.7838 64.3285 18.8506 64.3285 18.8674H64.4305C64.4475 18.7336 64.456 18.6584 64.456 18.6417C64.422 18.6417 64.405 18.625 64.405 18.5916C64.337 18.625 64.303 18.6501 64.303 18.6668ZM65.2719 19.2936H64.4815C64.3625 19.2936 64.303 19.3688 64.303 19.5192C64.303 19.5526 64.388 19.6362 64.5579 19.7699H64.5834C64.6684 19.5526 64.7279 19.444 64.7619 19.444C64.8979 19.4607 64.9999 19.4691 65.0679 19.4691V19.4941C64.9829 19.5777 64.8894 19.7365 64.7874 19.9705C64.6344 20.1209 64.32 20.6725 63.844 21.6252C63.759 21.7254 63.6741 21.8174 63.5891 21.9009V22.2018C63.4361 22.4859 63.2746 22.7116 63.1046 22.8787C63.0026 23.1461 62.9261 23.2798 62.8751 23.2798V23.3551C62.8751 23.4219 62.7987 23.5473 62.6457 23.7311C62.6457 23.8648 62.5777 23.9735 62.4417 24.057C61.9828 24.5083 61.7533 24.7423 61.7533 24.759V25.0849C61.5323 25.3357 61.4218 25.4694 61.4218 25.4861L61.4728 25.5112H62.0083L62.1867 25.3607H62.7222C62.9431 25.11 63.1216 24.9847 63.2576 24.9847C63.9545 24.3495 64.388 23.9233 64.5579 23.706C64.8299 23.6058 65.1019 23.4136 65.3738 23.1294C65.7818 22.745 66.0623 22.4024 66.2152 22.1015C66.2832 22.0848 66.3852 21.9177 66.5212 21.6001C66.6572 21.5667 66.8187 21.3327 67.0056 20.8981V20.6223C67.0566 20.5722 67.1076 20.5137 67.1586 20.4468C67.1076 20.38 67.0566 20.3131 67.0056 20.2463V19.7198L67.1586 19.5443C67.1076 19.4941 67.0311 19.4106 66.9292 19.2936H66.4192L66.1133 19.5192C65.7563 19.2351 65.5608 19.093 65.5268 19.093L65.2719 19.2936ZM63.9715 20.2212L63.946 20.2713L64.048 20.3215L64.0735 20.2713V20.2463L63.9715 20.2212ZM61.9828 21.0987C61.9828 21.1154 61.9743 21.1237 61.9573 21.1237C61.9913 21.1906 62.0168 21.224 62.0338 21.224C62.0338 21.2073 62.0423 21.1989 62.0592 21.1989C62.0253 21.1488 62.0083 21.1154 62.0083 21.0987H61.9828Z" fill="#52C41A"/>
<path d="M77.0004 6.55752C77.1024 6.55752 77.2979 6.73301 77.5869 7.08401C77.5869 7.21772 77.6548 7.32636 77.7908 7.40993L78.0968 7.73585V8.78883C78.2328 8.90583 78.3008 9.01447 78.3008 9.11475V9.1649C78.3008 9.19832 78.2073 9.29861 78.0203 9.46575H76.9494C76.8134 9.59946 76.703 9.66631 76.618 9.66631H76.567C76.465 9.66631 76.2525 9.57439 75.9296 9.39053C75.9296 9.27354 75.8701 9.14818 75.7511 9.01447C75.7341 8.91419 75.7256 8.82226 75.7256 8.73869V7.6105L75.5471 7.38486V7.28457C75.5471 7.11743 75.7256 6.98372 76.0825 6.88344C76.0825 6.86672 76.125 6.82494 76.21 6.75808H76.6945L77.0004 6.55752ZM73.1249 14.2794H73.5329C73.9238 14.4131 74.1193 14.5551 74.1193 14.7056V14.7306C74.1023 14.8811 74.0938 14.973 74.0938 15.0064C74.4677 15.6917 74.6547 16.0594 74.6547 16.1095V16.9118C74.5357 17.0288 74.4762 17.1207 74.4762 17.1876L74.5017 17.338C74.1108 17.6054 73.9068 17.7726 73.8898 17.8394C73.9238 17.923 73.9408 17.9899 73.9408 18.04V18.0651C73.9408 18.1988 73.8133 18.5916 73.5583 19.2434C73.3374 19.444 73.1249 19.7699 72.9209 20.2212C72.8699 20.4218 72.7 20.6474 72.411 20.8981C72.207 21.082 72.105 21.2157 72.105 21.2992C72.105 21.3828 72.0455 21.4664 71.9265 21.5499V22.1767C71.9265 22.2436 71.8671 22.3439 71.7481 22.4776L71.7736 22.5026V22.6781C71.7736 22.7784 71.7056 22.9957 71.5696 23.33C71.5696 23.4971 71.5101 23.6308 71.3911 23.7311V24.759C71.2551 24.8927 71.1871 24.9847 71.1871 25.0348V25.5362C71.3401 25.5697 71.4336 25.5864 71.4676 25.5864H71.4931C71.5271 25.5864 71.7311 25.4944 72.105 25.3106C72.139 25.227 72.3515 25.0849 72.7424 24.8844H73.4564C73.5074 24.8844 73.5414 24.968 73.5583 25.1351C73.3884 25.2521 73.1759 25.5947 72.9209 26.163L72.8444 26.2633V26.6393C72.6235 27.1241 72.4705 27.3664 72.3855 27.3664C72.2155 27.3664 71.935 27.4667 71.5441 27.6673V28.0433C71.5441 28.0767 71.4761 28.1018 71.3401 28.1185L71.1361 28.0935C71.1191 28.1102 71.0936 28.1185 71.0597 28.1185C71.0087 28.035 70.9662 27.9096 70.9322 27.7425H70.5497C70.3117 27.5085 70.1333 27.3915 70.0143 27.3915C69.9633 27.3915 69.7508 27.1909 69.3769 26.7898C69.3089 26.7062 69.1984 26.6644 69.0454 26.6644L68.8159 26.3886V25.9123C68.6799 25.7619 68.6119 25.6616 68.6119 25.6114C68.7479 25.3607 68.8159 25.2187 68.8159 25.1852C68.7819 25.1852 68.7139 25.11 68.6119 24.9596V24.8593C68.6119 24.8259 68.6884 24.7005 68.8414 24.4832C69.0114 23.8983 69.1814 23.5138 69.3514 23.33V22.7032C69.3514 22.6364 69.4109 22.5444 69.5298 22.4274V21.9009L69.7083 21.7004V21.4998C69.7083 21.4162 69.8103 21.2157 70.0143 20.8981C70.0143 20.731 70.1078 20.4886 70.2947 20.171L70.2692 20.0708V19.9955C70.2692 19.9621 70.3287 19.8618 70.4477 19.6947L70.4222 19.4941C70.5582 19.3103 70.6347 19.1431 70.6517 18.9927C70.7537 18.9259 70.8047 18.8506 70.8047 18.7671V18.5916L71.0087 18.1904C71.0087 18.157 71.0427 18.0818 71.1106 17.9648C71.1106 17.7809 71.2636 17.43 71.5696 16.9118C71.7226 16.5775 71.8841 16.285 72.054 16.0343C72.088 15.8839 72.156 15.6416 72.258 15.3073C72.258 15.2404 72.2665 15.207 72.2835 15.207L72.258 15.0566V14.7306C72.377 14.5468 72.5725 14.4549 72.8444 14.4549C72.8954 14.4549 72.9889 14.3964 73.1249 14.2794ZM72.513 21.6753H72.5895C72.6235 21.6753 72.6405 21.7505 72.6405 21.9009C72.6235 21.9678 72.5725 22.0012 72.4875 22.0012L72.4365 21.926C72.4535 21.7589 72.479 21.6753 72.513 21.6753Z" fill="#52C41A"/>
<path d="M80.315 14.1039H81.0799C81.1819 14.2042 81.2669 14.2543 81.3349 14.2543H81.3859C81.9638 14.8226 82.2528 15.1234 82.2528 15.1569C82.2528 15.2571 82.3463 15.3825 82.5333 15.5329L82.6097 15.6081V16.2098C82.6097 16.26 82.6777 16.3686 82.8137 16.5358C82.8307 16.6026 82.8392 16.6528 82.8392 16.6862C82.8392 16.7697 82.7627 16.9118 82.6097 17.1124C82.6947 17.2294 82.7712 17.3715 82.8392 17.5386C82.7032 17.6723 82.6352 17.7726 82.6352 17.8394V18.6417C82.5163 18.7253 82.4313 18.859 82.3803 19.0429C82.2613 19.1766 82.2018 19.3688 82.2018 19.6195C82.0658 19.7198 81.9553 19.9287 81.8703 20.2463C81.9043 20.2463 81.9638 20.3131 82.0488 20.4468V21.9009C81.9298 22.0012 81.8703 22.0848 81.8703 22.1516V22.6029L81.7174 22.7784V23.3049C81.7174 23.3216 81.6834 23.3551 81.6154 23.4052H80.621C80.604 23.4721 80.468 23.6559 80.213 23.9568H80.1875C79.6606 23.6726 79.3121 23.4971 79.1422 23.4303V23.4553C79.0572 23.5556 78.9722 23.7228 78.8872 23.9568L78.8362 23.9818H78.8107C78.7427 23.9818 78.6322 23.9233 78.4792 23.8063C78.1733 24.1239 78.0033 24.2827 77.9693 24.2827C77.9353 24.2827 77.8673 24.2325 77.7653 24.1323H77.4339C77.4169 24.1323 77.3404 24.0236 77.2044 23.8063L77.1789 23.8565V24.9596C77.5189 25.2604 77.6888 25.4192 77.6888 25.4359V25.8621C77.9608 25.8621 78.4113 26.0376 79.0402 26.3886C79.0912 26.4555 79.1167 26.514 79.1167 26.5641C78.7937 26.6811 78.5557 26.8901 78.4028 27.1909C78.3688 27.3079 78.3348 27.3664 78.3008 27.3664H78.2243C78.1733 27.3664 78.0798 27.3079 77.9438 27.1909C77.9438 27.2076 77.9098 27.2494 77.8418 27.3163H77.7908C77.6208 27.3163 77.3659 27.1575 77.0259 26.8399C76.8729 26.8399 76.635 26.6561 76.312 26.2884H76.0825L75.2921 25.5362L75.2411 25.5613C75.0882 25.3607 74.9267 25.0599 74.7567 24.6587V23.706C74.6377 23.6058 74.5782 23.472 74.5782 23.3049V22.6029C74.4592 22.5361 74.3997 22.3773 74.3997 22.1266C74.3997 22.0597 74.3063 21.9929 74.1193 21.926C73.9663 21.8424 73.8813 21.7756 73.8643 21.7254V21.1488C73.8643 21.1321 73.9493 21.0485 74.1193 20.8981H74.2213C74.2893 20.8981 74.3997 20.8897 74.5527 20.873L74.8077 20.4468H74.8587L74.9097 20.4719C75.1986 19.8033 75.3771 19.4691 75.4451 19.4691C75.7341 19.3855 75.8786 19.2434 75.8786 19.0429C75.8786 19.0094 75.989 18.859 76.21 18.5916C76.21 18.4746 76.3545 18.2072 76.6435 17.7893C76.7625 17.4383 76.8899 17.221 77.0259 17.1375H77.3319C77.4509 17.1375 77.5614 17.0205 77.6633 16.7865C77.7653 16.3018 78.0628 15.8588 78.5557 15.4577C78.7597 15.2906 78.9127 15.0733 79.0147 14.8059C79.2187 14.7891 79.3206 14.7223 79.3206 14.6053C79.4566 14.3713 79.5416 14.2543 79.5756 14.2543H80.162C80.162 14.2209 80.213 14.1707 80.315 14.1039ZM77.9693 19.9955H77.9438C77.8928 19.9955 77.8588 19.8953 77.8418 19.6947V19.6696C77.8418 19.4356 77.9098 19.2601 78.0458 19.1431V18.9426C78.0458 18.859 78.0203 18.8005 77.9693 18.7671C77.7143 19.3019 77.5104 19.6278 77.3574 19.7448V20.4468C77.3574 20.4635 77.3744 20.4803 77.4084 20.497C77.4424 20.497 77.4764 20.405 77.5104 20.2212L77.5614 20.1961H77.6379C77.6549 20.1961 77.6888 20.3465 77.7398 20.6474L77.9948 20.8981H78.8872L79.0912 21.0736H79.5756C79.6096 21.0736 79.7031 20.8897 79.8561 20.522V19.2183C79.9071 19.1849 79.9921 19.0261 80.111 18.742C80.179 18.742 80.2215 18.5916 80.2385 18.2907C80.3575 18.1737 80.417 18.0317 80.417 17.8645C80.4 17.5135 80.3745 17.338 80.3405 17.338C80.3235 17.3213 80.298 17.313 80.264 17.313C80.0601 17.313 79.9241 17.4801 79.8561 17.8144C79.8221 17.8478 79.7286 17.8729 79.5756 17.8896C79.5416 17.9564 79.3631 18.1487 79.0402 18.4662C78.9212 18.6668 78.6577 18.9927 78.2498 19.444C78.0968 19.8117 78.0033 19.9955 77.9693 19.9955Z" fill="#52C41A"/>
<path d="M90.3863 12.5495H91.8651C91.9671 12.6665 92.1286 12.725 92.3496 12.725C92.4175 12.725 92.5025 12.7751 92.6045 12.8754H93.089C93.208 12.9757 93.3184 13.0509 93.4204 13.101C93.4374 13.0843 93.4629 13.076 93.4969 13.076C94.1938 13.7278 94.5423 14.1039 94.5423 14.2042C94.5933 14.3379 94.7038 14.4632 94.8737 14.5802V14.9563L95.2562 15.2822V15.9842C95.4772 16.402 95.5877 16.6193 95.5877 16.636V17.0372C95.4177 17.5219 95.2137 17.7642 94.9757 17.7642C94.9077 17.7642 94.8652 17.8645 94.8483 18.0651C94.8313 18.0651 94.6868 18.1904 94.4148 18.4411C94.2278 18.2573 94.1343 18.04 94.1343 17.7893C93.9984 17.572 93.9304 17.3882 93.9304 17.2377V17.1625L93.9559 17.1124C93.8199 17.0957 93.5734 16.7196 93.2165 15.9842V15.4577C92.8765 14.739 92.6725 14.3797 92.6045 14.3797C92.3156 14.3797 92.1286 14.3212 92.0436 14.2042H91.3042L91.1257 14.3546H90.6158L90.4118 14.5301H90.0803L89.8254 14.7056H89.4939C89.4089 14.8226 89.2644 14.8811 89.0605 14.8811C88.9415 14.8811 88.797 14.9814 88.627 15.1819C88.372 15.2488 88.1426 15.4326 87.9386 15.7335L87.8621 15.7836H87.6581C87.5901 16.0343 87.4882 16.2098 87.3522 16.3101C87.2502 16.3268 87.0972 16.519 86.8932 16.8867L86.6892 17.1124V17.5637C86.6892 17.5971 86.5618 17.8394 86.3068 18.2907V18.8423C86.3068 18.8924 86.1878 19.1097 85.9498 19.4941V20.3215L86.3068 20.6975V21.3494C86.3068 21.4998 86.3748 21.6753 86.5108 21.8759C86.5108 22.0597 86.5618 22.2185 86.6637 22.3522C86.6637 22.4191 86.7317 22.5444 86.8677 22.7283V22.7784C86.8677 22.7951 86.8592 22.8536 86.8422 22.9539C87.0972 23.3551 87.2247 23.6643 87.2247 23.8815L87.7346 24.8092V24.8593C87.6666 24.9262 87.6326 24.9763 87.6326 25.0097C87.8366 25.3774 87.9386 25.5864 87.9386 25.6365V27.0906C87.9386 27.1073 88.0066 27.1909 88.1426 27.3413V28.5698L88.2956 28.7453V29.4724C88.2956 29.4891 88.2446 29.5559 88.1426 29.6729V29.9989C88.0746 30.0824 88.0151 30.1493 87.9641 30.1994C88.0831 30.3331 88.1426 30.4167 88.1426 30.4501C88.0236 30.6841 87.9641 30.8262 87.9641 30.8763V31.9795C87.6921 32.1967 87.5306 32.4224 87.4797 32.6564C87.4457 32.6898 87.4202 32.7065 87.4032 32.7065V33.0575C87.1822 33.2748 87.0717 33.4169 87.0717 33.4837C87.1567 33.5339 87.1992 33.5924 87.1992 33.6592C87.1652 33.6926 87.0122 33.7177 86.7402 33.7344C86.7232 33.8849 86.5873 34.0771 86.3323 34.3111L85.8478 34.7623H85.5419C85.4909 34.8125 85.2954 34.9211 84.9555 35.0883C84.9555 35.1217 84.9385 35.1384 84.9045 35.1384H84.216C84.0971 35.0214 84.0036 34.9629 83.9356 34.9629H83.5021C83.2812 34.7456 82.9072 34.52 82.3803 34.286C82.0403 33.9183 81.6664 33.5506 81.2584 33.1829C81.2584 33.0826 81.1394 32.8904 80.9015 32.6062C80.7315 32.3221 80.6465 32.155 80.6465 32.1048V31.478C80.5105 31.3778 80.4425 31.2357 80.4425 31.0518V30.4752C81.0374 29.8568 81.3434 29.5476 81.3604 29.5476H81.4114C81.4794 29.5476 81.5899 29.6479 81.7429 29.8484V30.1994L81.5899 30.3749V31.453C81.7089 31.5867 81.7683 31.687 81.7683 31.7538L81.7429 31.9544C81.8448 32.0881 81.9298 32.2469 81.9978 32.4307C82.2018 32.5979 82.3038 32.7065 82.3038 32.7567C82.3038 32.8737 82.3548 32.9656 82.4568 33.0324C82.7797 33.3834 83.0857 33.5924 83.3746 33.6592C83.3746 33.6759 83.5021 33.7428 83.7571 33.8598C83.9271 33.7595 84.0716 33.6926 84.1906 33.6592H84.3435L85.3889 32.6313V32.3555L85.7204 31.9795V31.127L85.9243 30.8763V29.2969C85.9413 29.2467 85.9838 29.2217 86.0518 29.2217C86.1028 29.3052 86.1623 29.347 86.2303 29.347L86.6637 28.9208V28.6952C86.6637 28.645 86.6128 28.5531 86.5108 28.4194C86.5108 28.2355 86.4428 28.1436 86.3068 28.1436H86.2813V28.5949C86.2813 28.6283 86.2643 28.645 86.2303 28.645C86.1453 28.645 86.0433 28.5615 85.9243 28.3943C85.9243 28.2272 85.9923 28.1436 86.1283 28.1436C86.1793 28.1269 86.2303 28.1185 86.2813 28.1185C86.2813 28.0851 86.1198 27.918 85.7969 27.6171C85.7629 27.5168 85.7459 27.45 85.7459 27.4165V26.514C85.5079 26.0961 85.3889 25.8621 85.3889 25.812V25.4109C85.1169 25.0097 84.981 24.6922 84.981 24.4582C84.845 24.2743 84.6155 23.8314 84.2925 23.1294V22.8286C84.2925 22.7951 84.1736 22.5444 83.9356 22.0764V21.6502C83.9356 21.6335 83.8676 21.5499 83.7316 21.3995V18.5665C83.7316 18.5164 83.8421 18.4579 84.0631 18.391C84.0801 18.2573 84.1481 18.1236 84.267 17.9899V17.313L84.0886 17.0873C84.0886 16.9536 84.25 16.7447 84.573 16.4605H84.828V16.0343C84.964 15.8505 85.1084 15.7586 85.2614 15.7586C85.4484 15.7586 85.5419 15.7084 85.5419 15.6081C85.4399 15.3908 85.3889 15.2655 85.3889 15.2321V15.207C85.4229 15.09 85.4654 15.0315 85.5164 15.0315H85.8733C85.8733 14.8811 86.0348 14.6554 86.3578 14.3546H86.6892C86.8592 14.271 86.9782 14.1122 87.0462 13.8782C87.1312 13.6944 87.2417 13.6025 87.3777 13.6025C87.5986 13.4687 87.7941 13.4019 87.9641 13.4019L88.0406 13.427C88.2276 13.193 88.3805 13.076 88.4995 13.076C88.6865 13.076 88.8225 13.0258 88.9075 12.9255H88.9585L89.2389 13.101C89.2389 13.0843 89.3919 12.9506 89.6979 12.6999H90.2078L90.3863 12.5495ZM84.8535 16.5107L84.879 16.611H84.93C84.964 16.611 84.981 16.6026 84.981 16.5859C84.947 16.5859 84.913 16.5608 84.879 16.5107H84.8535ZM85.7969 23.5306V23.5807L85.8988 23.6058V23.5807L85.8733 23.5055C85.8394 23.5222 85.8139 23.5306 85.7969 23.5306ZM85.9753 23.706C85.9753 23.7228 85.9668 23.7311 85.9498 23.7311L85.9753 23.7813H86.0263C86.0433 23.7813 86.0518 23.7729 86.0518 23.7562L85.9753 23.706ZM86.4598 26.3636V26.3886C86.6128 26.8065 86.7062 27.0154 86.7402 27.0154H86.7657C86.8167 27.0154 86.8422 26.9235 86.8422 26.7396V26.5892C86.8422 26.5558 86.8252 26.4806 86.7912 26.3636H86.4598ZM86.1538 27.5419L86.3833 27.7675H86.4088C86.4088 27.7508 86.4343 27.7007 86.4853 27.6171C86.4343 27.5001 86.3918 27.4416 86.3578 27.4416H86.2813C86.1963 27.4416 86.1538 27.475 86.1538 27.5419ZM86.3578 30.1493V30.2496H86.4088V30.1744C86.4088 30.1576 86.3918 30.1493 86.3578 30.1493Z" fill="#52C41A"/>
</svg>
