<svg width="54" height="30" viewBox="0 0 54 30" fill="none" xmlns="http://www.w3.org/2000/svg">
<path fill-rule="evenodd" clip-rule="evenodd" d="M29.2365 29.8746C29.2365 29.8746 30.1975 29.7692 30.6897 29.2471C31.1403 28.7687 31.1247 27.8659 31.1247 27.8659C31.1247 27.8659 31.0648 23.6505 33.0468 23.0281C35.0001 22.4159 37.5082 27.1046 40.17 28.9076C42.1806 30.2707 43.7068 29.9723 43.7068 29.9723L50.8196 29.8746C50.8196 29.8746 54.5388 29.6483 52.7756 26.76C52.6297 26.5233 51.7468 24.6227 47.4885 20.7184C43.0271 16.6316 43.6261 17.2926 48.9965 10.2223C52.2677 5.9168 53.5751 3.28826 53.1662 2.16431C52.7782 1.08923 50.3716 1.37472 50.3716 1.37472L42.3655 1.42359C42.3655 1.42359 41.7717 1.34385 41.3316 1.60362C40.9018 1.85825 40.6232 2.45237 40.6232 2.45237C40.6232 2.45237 39.3574 5.78306 37.6671 8.61736C34.1016 14.5946 32.677 14.9109 32.0936 14.5406C30.7366 13.6738 31.0752 11.0633 31.0752 9.20891C31.0752 3.41428 31.9659 0.999212 29.3432 0.374225C28.4734 0.165897 27.8327 0.0295828 25.6058 0.00643513C22.7488 -0.0218564 20.3318 0.0167229 18.9619 0.677717C18.0503 1.11752 17.3471 2.10001 17.7768 2.15659C18.3055 2.22604 19.5036 2.47552 20.1391 3.32941C20.9595 4.43278 20.9308 6.907 20.9308 6.907C20.9308 6.907 21.4022 13.7278 19.8292 14.574C18.7509 15.1553 17.2716 13.9696 14.0915 8.54534C12.4637 5.76763 11.2344 2.69671 11.2344 2.69671C11.2344 2.69671 10.9974 2.12316 10.5729 1.81452C10.0598 1.44159 9.3436 1.32585 9.3436 1.32585L1.73597 1.37472C1.73597 1.37472 0.592614 1.40558 0.173296 1.89683C-0.199141 2.33149 0.144647 3.23425 0.144647 3.23425C0.144647 3.23425 6.10105 16.9968 12.8466 23.9334C19.0322 30.2913 26.0538 29.8746 26.0538 29.8746H29.2365Z" fill="#4C6C91"/>
</svg>
