<svg width="41" height="30" viewBox="0 0 41 30" fill="none" xmlns="http://www.w3.org/2000/svg">
<path d="M39.6658 4.69412C39.1988 2.85882 37.831 1.41176 36.0962 0.917647C32.927 0 20.2499 0 20.2499 0C20.2499 0 7.57287 0 4.40361 0.882353C2.70221 1.37647 1.30107 2.85882 0.834016 4.69412C0 8.04706 0 15 0 15C0 15 0 21.9882 0.834016 25.3059C1.30107 27.1412 2.66885 28.5882 4.40361 29.0824C7.60623 30 20.2499 30 20.2499 30C20.2499 30 32.927 30 36.0962 29.1177C37.831 28.6235 39.1988 27.1765 39.6658 25.3412C40.4998 21.9882 40.4998 15.0353 40.4998 15.0353C40.4998 15.0353 40.5332 8.04706 39.6658 4.69412Z" fill="#FF0000"/>
<path d="M26.7553 15.0002L16.2134 8.57666V21.4237L26.7553 15.0002Z" fill="white"/>
</svg>
