<svg xmlns="http://www.w3.org/2000/svg" width="122" height="25.595" fill="none"><path d="M31.385 7.463h5.521c.337 0 .66.072.97.214.308.128.575.306.8.533.225.228.4.498.527.811.14.313.21.64.21.982h-1.517a.925.925 0 0 0-.295-.705.903.903 0 0 0-.695-.298h-5.521a.97.97 0 0 0-.717.298.96.96 0 0 0-.274.705v5.59c0 .284.092.526.274.725.197.185.436.278.717.278h5.521c.281 0 .513-.093.695-.278.197-.199.295-.44.295-.725h1.518c0 .355-.07.69-.21 1.003a2.5 2.5 0 0 1-.528.79 2.7 2.7 0 0 1-.8.554 2.51 2.51 0 0 1-.97.192h-5.521c-.352 0-.682-.064-.99-.192a2.79 2.79 0 0 1-1.328-1.344 2.652 2.652 0 0 1-.19-1.003v-5.59c0-.342.063-.669.19-.982.14-.313.323-.583.547-.81.225-.228.485-.406.78-.534.31-.142.64-.213.99-.213zM48.801 18.132H43.28c-.351 0-.682-.064-.99-.192a2.79 2.79 0 0 1-.78-.555 2.735 2.735 0 0 1-.548-.81 2.595 2.595 0 0 1-.19-.982v-8.13h1.517v8.13c0 .284.092.526.274.725.197.185.436.278.717.278H48.8c.281 0 .513-.093.695-.278.197-.199.296-.44.296-.725V7.464h1.517v12.311c0 .341-.063.661-.19.96a2.44 2.44 0 0 1-.527.81 2.406 2.406 0 0 1-.8.534c-.296.143-.612.22-.949.235v-1.536a.952.952 0 0 0 .675-.32.934.934 0 0 0 .274-.683v-1.856a2.435 2.435 0 0 1-.99.213zM60.593 7.485c.337 0 .654.07.949.213.309.128.576.306.8.534.225.227.4.497.527.81.14.3.211.62.211.96v5.59c0 .356-.07.69-.21 1.004a2.498 2.498 0 0 1-.528.79 2.7 2.7 0 0 1-.8.554 2.357 2.357 0 0 1-.949.192h-5.521c-.351 0-.681-.064-.99-.192a2.79 2.79 0 0 1-1.328-1.344 2.651 2.651 0 0 1-.19-1.003V3.303h1.518v4.374c.295-.128.625-.192.99-.192zm.99 2.518a.925.925 0 0 0-.294-.705.902.902 0 0 0-.696-.298h-5.521a.981.981 0 0 0-.695.277 1.013 1.013 0 0 0-.295.683v5.633c0 .284.09.526.273.725.197.185.436.278.717.278h5.521c.281 0 .513-.093.696-.278.196-.199.295-.44.295-.725zM72.365 7.463c.337 0 .66.072.97.214.308.128.575.306.8.533.225.228.4.498.527.811.14.299.21.619.21.96v1.174a2.47 2.47 0 0 1-.231.96 2.619 2.619 0 0 1-1.328 1.259 2.357 2.357 0 0 1-.948.192h-6.512v2.027c0 .284.091.526.274.725.197.185.436.278.717.278h5.52a.936.936 0 0 0 .696-.278c.197-.199.295-.44.295-.725h1.518c0 .355-.07.69-.211 1.003a2.5 2.5 0 0 1-.527.79 2.7 2.7 0 0 1-.8.554 2.51 2.51 0 0 1-.97.192h-5.521c-.352 0-.682-.064-.99-.192a2.79 2.79 0 0 1-1.328-1.344 2.651 2.651 0 0 1-.19-1.003v-5.59c0-.342.063-.669.19-.982.14-.313.323-.583.547-.81.225-.228.485-.406.78-.534.31-.142.64-.213.99-.213zm.99 2.54a.925.925 0 0 0-.295-.705.902.902 0 0 0-.695-.298h-5.521c-.281 0-.52.1-.717.298a.96.96 0 0 0-.274.705v2.027h6.512a.91.91 0 0 0 .674-.278.974.974 0 0 0 .316-.683zM78.636 7.463h5.521c.337 0 .66.072.97.214.308.128.576.306.8.533.225.228.4.498.527.811.14.299.21.626.21.982h-1.516a.925.925 0 0 0-.295-.705.904.904 0 0 0-.696-.298h-5.521c-.282 0-.52.1-.717.298a.96.96 0 0 0-.274.705v8.129h-1.517v-8.13c0-.355.063-.682.19-.98a2.75 2.75 0 0 1 .547-.812c.226-.227.485-.405.78-.533.31-.142.64-.213.991-.213zM89.437 3.281v4.375c.155-.072.303-.121.443-.15.154-.043.316-.064.485-.064h8.093v1.536h-8.03c-.28 0-.52.1-.717.3a.962.962 0 0 0-.274.703v5.612c0 .27.092.505.274.704a.99.99 0 0 0 .675.299h5.563a.936.936 0 0 0 .696-.278.97.97 0 0 0 .295-.704h1.517c0 .327-.063.633-.19.918-.112.284-.267.54-.463.768a2.436 2.436 0 0 1-1.602.81v.022h-5.837a2.641 2.641 0 0 1-.949-.213 2.776 2.776 0 0 1-.779-.555c-.225-.228-.4-.49-.527-.79a2.595 2.595 0 0 1-.19-.981V3.282zM110.207 15.72c.028.257.134.477.316.662.183.171.4.263.654.278v1.515c-.337 0-.654-.064-.949-.192a2.726 2.726 0 0 1-.8-.534 2.663 2.663 0 0 1-.78.512c-.296.114-.604.171-.927.171h-5.522c-.337 0-.66-.064-.969-.192a2.783 2.783 0 0 1-1.328-1.344 2.595 2.595 0 0 1-.19-.982v-5.569c0-.341.064-.668.19-.981.14-.313.323-.583.548-.811a2.46 2.46 0 0 1 .78-.533 2.29 2.29 0 0 1 .969-.214h5.522c.337 0 .652.071.948.214.309.128.575.305.8.533.226.228.401.498.527.81.141.314.211.64.211.982v5.57zm-1.517-5.675a.923.923 0 0 0-.295-.704.878.878 0 0 0-.674-.299h-5.522c-.267 0-.498.1-.695.3a.96.96 0 0 0-.274.703v5.57c0 .284.091.525.274.725a.98.98 0 0 0 .695.277h5.522c.253 0 .47-.085.652-.256.183-.185.289-.405.317-.661v-.086zM119.492 7.463c.338 0 .66.072.97.214.309.128.576.306.801.533.224.228.4.498.527.811.14.313.21.64.21.982v12.311h-1.517v-4.395a2.252 2.252 0 0 1-.99.213h-5.522c-.351 0-.681-.064-.99-.192a2.794 2.794 0 0 1-1.328-1.344 2.651 2.651 0 0 1-.19-1.003v-5.59c0-.342.064-.669.19-.982.14-.313.323-.583.548-.81.225-.228.485-.406.78-.534.309-.142.639-.214.99-.214zm.991 2.54a.925.925 0 0 0-.295-.705.904.904 0 0 0-.696-.298h-5.52c-.281 0-.52.1-.717.298a.962.962 0 0 0-.274.705v5.59c0 .284.091.526.274.725.196.185.436.278.716.278h5.521c.253 0 .47-.086.654-.256a.943.943 0 0 0 .337-.62v-.127z" fill="#fff"/><path d="M0 1.313C0 .588.588 0 1.313 0h5.906c.725 0 1.313.588 1.313 1.313v5.906c0 .725-.588 1.313-1.313 1.313H1.313A1.313 1.313 0 0 1 0 7.219zM0 18.376c0-.725.588-1.312 1.313-1.312h5.906c.725 0 1.313.587 1.313 1.312v5.907c0 .725-.588 1.312-1.313 1.312H1.313A1.313 1.313 0 0 1 0 24.283zM9.844 9.844c0-.724.588-1.312 1.313-1.312h5.907c.725 0 1.312.588 1.312 1.312v5.907c0 .725-.587 1.313-1.312 1.313h-5.907a1.313 1.313 0 0 1-1.313-1.313z" fill="#f82615"/></svg>